<svg xmlns="http://www.w3.org/2000/svg" width="148" height="150" viewBox="0 0 148 150">
  <g id="Group_1281" data-name="Group 1281" transform="translate(-841 -390)" opacity="0.45">
    <rect id="Rectangle_1657" data-name="Rectangle 1657" width="31" height="31" transform="translate(841 390)" fill="#fff" opacity="0.55"/>
    <rect id="Rectangle_1664" data-name="Rectangle 1664" width="31" height="31" transform="translate(841 430)" fill="#fff" opacity="0.55"/>
    <rect id="Rectangle_1668" data-name="Rectangle 1668" width="31" height="31" transform="translate(841 469)" fill="#fff" opacity="0.55"/>
    <rect id="Rectangle_1672" data-name="Rectangle 1672" width="31" height="31" transform="translate(841 509)" fill="#fff" opacity="0.55"/>
    <rect id="Rectangle_1658" data-name="Rectangle 1658" width="31" height="31" transform="translate(880 390)" fill="#fff" opacity="0.55"/>
    <rect id="Rectangle_1663" data-name="Rectangle 1663" width="31" height="31" transform="translate(880 430)" fill="#fff" opacity="0.55"/>
    <rect id="Rectangle_1667" data-name="Rectangle 1667" width="31" height="31" transform="translate(880 469)" fill="#fff" opacity="0.55"/>
    <rect id="Rectangle_1671" data-name="Rectangle 1671" width="31" height="31" transform="translate(880 509)" fill="#fff" opacity="0.55"/>
    <rect id="Rectangle_1659" data-name="Rectangle 1659" width="31" height="31" transform="translate(919 390)" fill="#fff" opacity="0.55"/>
    <rect id="Rectangle_1661" data-name="Rectangle 1661" width="31" height="31" transform="translate(919 430)" fill="#fff" opacity="0.55"/>
    <rect id="Rectangle_1665" data-name="Rectangle 1665" width="31" height="31" transform="translate(919 469)" fill="#fff" opacity="0.55"/>
    <rect id="Rectangle_1669" data-name="Rectangle 1669" width="31" height="31" transform="translate(919 509)" fill="#fff" opacity="0.55"/>
    <rect id="Rectangle_1660" data-name="Rectangle 1660" width="31" height="31" transform="translate(958 390)" fill="#fff" opacity="0.55"/>
    <rect id="Rectangle_1662" data-name="Rectangle 1662" width="31" height="31" transform="translate(958 430)" fill="#fff" opacity="0.55"/>
    <rect id="Rectangle_1666" data-name="Rectangle 1666" width="31" height="31" transform="translate(958 469)" fill="#fff" opacity="0.55"/>
    <rect id="Rectangle_1670" data-name="Rectangle 1670" width="31" height="31" transform="translate(958 509)" fill="#fff" opacity="0.55"/>
  </g>
</svg>
