<svg id="Group_1250" data-name="Group 1250" xmlns="http://www.w3.org/2000/svg" width="38.023" height="33.419" viewBox="0 0 38.023 33.419">
  <g id="feeling" transform="translate(0 0)">
    <path id="Path_2093" data-name="Path 2093" d="M11.214,203.279a11.1,11.1,0,0,0,11-9.743,13.373,13.373,0,0,1-8.76-12.31,11.147,11.147,0,1,0-2.239,22.054Zm3.342-15.6a1.114,1.114,0,1,1-1.114,1.114A1.114,1.114,0,0,1,14.556,187.684Zm-6.684,0A1.114,1.114,0,1,1,6.758,188.8,1.114,1.114,0,0,1,7.872,187.684Zm-2,7.128a6.677,6.677,0,0,1,10.685,0,1.114,1.114,0,0,1-1.78,1.34,4.583,4.583,0,0,0-7.125,0,1.114,1.114,0,0,1-1.78-1.34Z" transform="translate(0 -169.86)"/>
    <path id="Path_2094" data-name="Path 2094" d="M222.14,31a11.14,11.14,0,1,0,11.214,11.14A11.153,11.153,0,0,0,222.14,31Zm3.342,6.684a1.114,1.114,0,1,1-1.114,1.114A1.114,1.114,0,0,1,225.481,37.684Zm-6.684,0a1.114,1.114,0,1,1-1.114,1.114A1.114,1.114,0,0,1,218.8,37.684Zm8.684,6.24a6.677,6.677,0,0,1-10.685,0,1.114,1.114,0,1,1,1.78-1.34,4.583,4.583,0,0,0,7.125,0,1.114,1.114,0,1,1,1.78,1.34Z" transform="translate(-195.33 -31)"/>
  </g>
</svg>
